<svg id="my-svg" width="100%" xmlns="http://www.w3.org/2000/svg" xmlns:xlink="http://www.w3.org/1999/xlink" class="flowchart" style="max-width: 680.523px; background-color: white;" viewBox="0 0 680.5234375 483.6473693847656" role="graphics-document document" aria-roledescription="flowchart-v2"><style>#my-svg{font-family:Segoe UI,Helvetica,Arial,sans-serif;font-size:16px;fill:#333;}@keyframes edge-animation-frame{from{stroke-dashoffset:0;}}@keyframes dash{to{stroke-dashoffset:0;}}#my-svg .edge-animation-slow{stroke-dasharray:9,5!important;stroke-dashoffset:900;animation:dash 50s linear infinite;stroke-linecap:round;}#my-svg .edge-animation-fast{stroke-dasharray:9,5!important;stroke-dashoffset:900;animation:dash 20s linear infinite;stroke-linecap:round;}#my-svg .error-icon{fill:hsl(220.5882352941, 100%, 98.3333333333%);}#my-svg .error-text{fill:rgb(8.5000000002, 5.7500000001, 0);stroke:rgb(8.5000000002, 5.7500000001, 0);}#my-svg .edge-thickness-normal{stroke-width:1px;}#my-svg .edge-thickness-thick{stroke-width:3.5px;}#my-svg .edge-pattern-solid{stroke-dasharray:0;}#my-svg .edge-thickness-invisible{stroke-width:0;fill:none;}#my-svg .edge-pattern-dashed{stroke-dasharray:3;}#my-svg .edge-pattern-dotted{stroke-dasharray:2;}#my-svg .marker{fill:#0b0b0b;stroke:#0b0b0b;}#my-svg .marker.cross{stroke:#0b0b0b;}#my-svg svg{font-family:Segoe UI,Helvetica,Arial,sans-serif;font-size:16px;}#my-svg p{margin:0;}#my-svg .label{font-family:Segoe UI,Helvetica,Arial,sans-serif;color:#333;}#my-svg .cluster-label text{fill:rgb(8.5000000002, 5.7500000001, 0);}#my-svg .cluster-label span{color:rgb(8.5000000002, 5.7500000001, 0);}#my-svg .cluster-label span p{background-color:transparent;}#my-svg .label text,#my-svg span{fill:#333;color:#333;}#my-svg .node rect,#my-svg .node circle,#my-svg .node ellipse,#my-svg .node polygon,#my-svg .node path{fill:#fff4dd;stroke:hsl(40.5882352941, 60%, 83.3333333333%);stroke-width:1px;}#my-svg .rough-node .label text,#my-svg .node .label text,#my-svg .image-shape .label,#my-svg .icon-shape .label{text-anchor:middle;}#my-svg .node .katex path{fill:#000;stroke:#000;stroke-width:1px;}#my-svg .rough-node .label,#my-svg .node .label,#my-svg .image-shape .label,#my-svg .icon-shape .label{text-align:center;}#my-svg .node.clickable{cursor:pointer;}#my-svg .root .anchor path{fill:#0b0b0b!important;stroke-width:0;stroke:#0b0b0b;}#my-svg .arrowheadPath{fill:#0b0b0b;}#my-svg .edgePath .path{stroke:#0b0b0b;stroke-width:1px;}#my-svg .flowchart-link{stroke:#0b0b0b;fill:none;}#my-svg .edgeLabel{background-color:hsl(-79.4117647059, 100%, 93.3333333333%);text-align:center;}#my-svg .edgeLabel p{background-color:hsl(-79.4117647059, 100%, 93.3333333333%);}#my-svg .edgeLabel rect{opacity:0.5;background-color:hsl(-79.4117647059, 100%, 93.3333333333%);fill:hsl(-79.4117647059, 100%, 93.3333333333%);}#my-svg .labelBkg{background-color:rgba(243.9999999999, 220.9999999998, 255, 0.5);}#my-svg .cluster rect{fill:hsl(220.5882352941, 100%, 98.3333333333%);stroke:hsl(220.5882352941, 60%, 88.3333333333%);stroke-width:1px;}#my-svg .cluster text{fill:rgb(8.5000000002, 5.7500000001, 0);}#my-svg .cluster span{color:rgb(8.5000000002, 5.7500000001, 0);}#my-svg div.mermaidTooltip{position:absolute;text-align:center;max-width:200px;padding:2px;font-family:Segoe UI,Helvetica,Arial,sans-serif;font-size:12px;background:hsl(220.5882352941, 100%, 98.3333333333%);border:1px solid hsl(220.5882352941, 60%, 88.3333333333%);border-radius:2px;pointer-events:none;z-index:100;}#my-svg .flowchartTitleText{text-anchor:middle;font-size:18px;fill:#333;}#my-svg rect.text{fill:none;stroke-width:0;}#my-svg .icon-shape,#my-svg .image-shape{background-color:hsl(-79.4117647059, 100%, 93.3333333333%);text-align:center;}#my-svg .icon-shape p,#my-svg .image-shape p{background-color:hsl(-79.4117647059, 100%, 93.3333333333%);padding:2px;}#my-svg .icon-shape .label rect,#my-svg .image-shape .label rect{opacity:0.5;background-color:hsl(-79.4117647059, 100%, 93.3333333333%);fill:hsl(-79.4117647059, 100%, 93.3333333333%);}#my-svg .label-icon{display:inline-block;height:1em;overflow:visible;vertical-align:-0.125em;}#my-svg .node .label-icon path{fill:currentColor;stroke:revert;stroke-width:revert;}#my-svg .node .neo-node{stroke:hsl(40.5882352941, 60%, 83.3333333333%);}#my-svg [data-look="neo"].node rect,#my-svg [data-look="neo"].cluster rect,#my-svg [data-look="neo"].node polygon{stroke:url(#my-svg-gradient);filter:drop-shadow( 1px 2px 2px rgba(185,185,185,1));}#my-svg [data-look="neo"].node path{stroke:url(#my-svg-gradient);stroke-width:1px;}#my-svg [data-look="neo"].node .outer-path{filter:drop-shadow( 1px 2px 2px rgba(185,185,185,1));}#my-svg [data-look="neo"].node .neo-line path{stroke:hsl(40.5882352941, 60%, 83.3333333333%);filter:none;}#my-svg [data-look="neo"].node circle{stroke:url(#my-svg-gradient);filter:drop-shadow( 1px 2px 2px rgba(185,185,185,1));}#my-svg [data-look="neo"].node circle .state-start{fill:#000000;}#my-svg [data-look="neo"].icon-shape .icon{fill:url(#my-svg-gradient);filter:drop-shadow( 1px 2px 2px rgba(185,185,185,1));}#my-svg [data-look="neo"].icon-shape .icon-neo path{stroke:url(#my-svg-gradient);filter:drop-shadow( 1px 2px 2px rgba(185,185,185,1));}#my-svg :root{--mermaid-font-family:"trebuchet ms",verdana,arial,sans-serif;}#my-svg .act&gt;*{fill:rgb(31, 111, 235)!important;stroke:rgb(11, 61, 145)!important;color:rgb(255, 255, 255)!important;}#my-svg .act span{fill:rgb(31, 111, 235)!important;stroke:rgb(11, 61, 145)!important;color:rgb(255, 255, 255)!important;}#my-svg .act tspan{fill:rgb(255, 255, 255)!important;}#my-svg .vault&gt;*{fill:rgb(253, 230, 138)!important;stroke:rgb(180, 83, 9)!important;color:rgb(0, 0, 0)!important;}#my-svg .vault span{fill:rgb(253, 230, 138)!important;stroke:rgb(180, 83, 9)!important;color:rgb(0, 0, 0)!important;}#my-svg .vault tspan{fill:rgb(0, 0, 0)!important;}#my-svg .ext&gt;*{fill:rgb(219, 234, 254)!important;stroke:rgb(30, 64, 175)!important;color:rgb(0, 0, 0)!important;}#my-svg .ext span{fill:rgb(219, 234, 254)!important;stroke:rgb(30, 64, 175)!important;color:rgb(0, 0, 0)!important;}#my-svg .ext tspan{fill:rgb(0, 0, 0)!important;}#my-svg .ok&gt;*{fill:rgb(26, 127, 55)!important;stroke:rgb(11, 61, 32)!important;color:rgb(255, 255, 255)!important;font-weight:bold!important;}#my-svg .ok span{fill:rgb(26, 127, 55)!important;stroke:rgb(11, 61, 32)!important;color:rgb(255, 255, 255)!important;font-weight:bold!important;}#my-svg .ok tspan{fill:rgb(255, 255, 255)!important;}</style><g><marker id="my-svg_flowchart-v2-pointEnd" class="marker flowchart-v2" viewBox="0 0 10 10" refX="5" refY="5" markerUnits="userSpaceOnUse" markerWidth="8" markerHeight="8" orient="auto"><path d="M 0 0 L 10 5 L 0 10 z" class="arrowMarkerPath" style="stroke-width: 1; stroke-dasharray: 1, 0;"/></marker><marker id="my-svg_flowchart-v2-pointStart" class="marker flowchart-v2" viewBox="0 0 10 10" refX="4.5" refY="5" markerUnits="userSpaceOnUse" markerWidth="8" markerHeight="8" orient="auto"><path d="M 0 5 L 10 10 L 10 0 z" class="arrowMarkerPath" style="stroke-width: 1; stroke-dasharray: 1, 0;"/></marker><marker id="my-svg_flowchart-v2-pointEnd-margin" class="marker flowchart-v2" viewBox="0 0 11.5 14" refX="11.5" refY="7" markerUnits="userSpaceOnUse" markerWidth="10.5" markerHeight="14" orient="auto"><path d="M 0 0 L 11.5 7 L 0 14 z" class="arrowMarkerPath" style="stroke-width: 0; stroke-dasharray: 1, 0;"/></marker><marker id="my-svg_flowchart-v2-pointStart-margin" class="marker flowchart-v2" viewBox="0 0 11.5 14" refX="1" refY="7" markerUnits="userSpaceOnUse" markerWidth="11.5" markerHeight="14" orient="auto"><polygon points="0,7 11.5,14 11.5,0" class="arrowMarkerPath" style="stroke-width: 0; stroke-dasharray: 1, 0;"/></marker><marker id="my-svg_flowchart-v2-circleEnd" class="marker flowchart-v2" viewBox="0 0 10 10" refX="11" refY="5" markerUnits="userSpaceOnUse" markerWidth="11" markerHeight="11" orient="auto"><circle cx="5" cy="5" r="5" class="arrowMarkerPath" style="stroke-width: 1; stroke-dasharray: 1, 0;"/></marker><marker id="my-svg_flowchart-v2-circleStart" class="marker flowchart-v2" viewBox="0 0 10 10" refX="-1" refY="5" markerUnits="userSpaceOnUse" markerWidth="11" markerHeight="11" orient="auto"><circle cx="5" cy="5" r="5" class="arrowMarkerPath" style="stroke-width: 1; stroke-dasharray: 1, 0;"/></marker><marker id="my-svg_flowchart-v2-circleEnd-margin" class="marker flowchart-v2" viewBox="0 0 10 10" refY="5" refX="12.25" markerUnits="userSpaceOnUse" markerWidth="14" markerHeight="14" orient="auto"><circle cx="5" cy="5" r="5" class="arrowMarkerPath" style="stroke-width: 0; stroke-dasharray: 1, 0;"/></marker><marker id="my-svg_flowchart-v2-circleStart-margin" class="marker flowchart-v2" viewBox="0 0 10 10" refX="-2" refY="5" markerUnits="userSpaceOnUse" markerWidth="14" markerHeight="14" orient="auto"><circle cx="5" cy="5" r="5" class="arrowMarkerPath" style="stroke-width: 0; stroke-dasharray: 1, 0;"/></marker><marker id="my-svg_flowchart-v2-crossEnd" class="marker cross flowchart-v2" viewBox="0 0 11 11" refX="12" refY="5.2" markerUnits="userSpaceOnUse" markerWidth="11" markerHeight="11" orient="auto"><path d="M 1,1 l 9,9 M 10,1 l -9,9" class="arrowMarkerPath" style="stroke-width: 2; stroke-dasharray: 1, 0;"/></marker><marker id="my-svg_flowchart-v2-crossStart" class="marker cross flowchart-v2" viewBox="0 0 11 11" refX="-1" refY="5.2" markerUnits="userSpaceOnUse" markerWidth="11" markerHeight="11" orient="auto"><path d="M 1,1 l 9,9 M 10,1 l -9,9" class="arrowMarkerPath" style="stroke-width: 2; stroke-dasharray: 1, 0;"/></marker><marker id="my-svg_flowchart-v2-crossEnd-margin" class="marker cross flowchart-v2" viewBox="0 0 15 15" refX="17.7" refY="7.5" markerUnits="userSpaceOnUse" markerWidth="12" markerHeight="12" orient="auto"><path d="M 1,1 L 14,14 M 1,14 L 14,1" class="arrowMarkerPath" style="stroke-width: 2.5;"/></marker><marker id="my-svg_flowchart-v2-crossStart-margin" class="marker cross flowchart-v2" viewBox="0 0 15 15" refX="-3.5" refY="7.5" markerUnits="userSpaceOnUse" markerWidth="12" markerHeight="12" orient="auto"><path d="M 1,1 L 14,14 M 1,14 L 14,1" class="arrowMarkerPath" style="stroke-width: 2.5; stroke-dasharray: 1, 0;"/></marker><g class="root"><g class="clusters"/><g class="edgePaths"><path d="M179.846,80L158.068,86.583C136.29,93.167,92.735,106.333,70.957,127.721C49.18,149.108,49.18,178.716,49.18,208.324C49.18,237.932,49.18,267.539,60.825,288.611C72.47,309.682,95.759,322.217,107.404,328.484L119.049,334.752" id="my-svg-L_S_LE_0" class="edge-thickness-normal edge-pattern-solid edge-thickness-normal edge-pattern-solid flowchart-link" style=";" data-edge="true" data-et="edge" data-id="L_S_LE_0" data-points="W3sieCI6MTc5Ljg0NTYzODQ1MTk4Njc2LCJ5Ijo4MH0seyJ4Ijo0OS4xNzk2ODc1LCJ5IjoxMTkuNX0seyJ4Ijo0OS4xNzk2ODc1LCJ5IjoyMDguMzIzNjg4NTA3MDgwMDh9LHsieCI6NDkuMTc5Njg3NSwieSI6Mjk3LjE0NzM3NzAxNDE2MDE2fSx7IngiOjEyMi41NzE1NDI4MTQ5NjA2MiwieSI6MzM2LjY0NzM3NzAxNDE2MDE2fV0=" data-look="classic" marker-end="url(#my-svg_flowchart-v2-pointEnd)"/><path d="M236.103,80L224.613,86.583C213.123,93.167,190.144,106.333,178.654,121.461C167.164,136.589,167.164,153.679,167.164,162.223L167.164,170.768" id="my-svg-L_S_DNS_0" class="edge-thickness-normal edge-pattern-solid edge-thickness-normal edge-pattern-solid flowchart-link" style=";" data-edge="true" data-et="edge" data-id="L_S_DNS_0" data-points="W3sieCI6MjM2LjEwMzA4ODc4MzExMjU4LCJ5Ijo4MH0seyJ4IjoxNjcuMTY0MDYyNSwieSI6MTE5LjV9LHsieCI6MTY3LjE2NDA2MjUsInkiOjE3NC43Njc5NTE5NjUzMzIwM31d" data-look="classic" marker-end="url(#my-svg_flowchart-v2-pointEnd)"/><path d="M167.164,241.879L167.164,251.091C167.164,260.302,167.164,278.725,167.164,293.853C167.164,308.981,167.164,320.814,167.164,326.731L167.164,332.647" id="my-svg-L_DNS_LE_0" class="edge-thickness-normal edge-pattern-solid edge-thickness-normal edge-pattern-solid flowchart-link" style=";" data-edge="true" data-et="edge" data-id="L_DNS_LE_0" data-points="W3sieCI6MTY3LjE2NDA2MjUsInkiOjI0MS44Nzk0MjUwNDg4MjgxMn0seyJ4IjoxNjcuMTY0MDYyNSwieSI6Mjk3LjE0NzM3NzAxNDE2MDE2fSx7IngiOjE2Ny4xNjQwNjI1LCJ5IjozMzYuNjQ3Mzc3MDE0MTYwMTZ9XQ==" data-look="classic" marker-end="url(#my-svg_flowchart-v2-pointEnd)"/><path d="M235.586,345.789L272.917,337.682C310.247,329.575,384.909,313.361,422.24,290.45C459.57,267.539,459.57,237.932,459.57,208.324C459.57,178.716,459.57,149.108,446.167,128.004C432.763,106.9,405.956,94.301,392.552,88.001L379.149,81.701" id="my-svg-L_LE_S_0" class="edge-thickness-normal edge-pattern-solid edge-thickness-normal edge-pattern-solid flowchart-link" style=";" data-edge="true" data-et="edge" data-id="L_LE_S_0" data-points="W3sieCI6MjM1LjU4NTkzNzUsInkiOjM0NS43ODg2MzQ4OTU5NTk5fSx7IngiOjQ1OS41NzAzMTI1LCJ5IjoyOTcuMTQ3Mzc3MDE0MTYwMTZ9LHsieCI6NDU5LjU3MDMxMjUsInkiOjIwOC4zMjM2ODg1MDcwODAwOH0seyJ4Ijo0NTkuNTcwMzEyNSwieSI6MTE5LjV9LHsieCI6Mzc1LjUyODU4NTQ3MTg1NDMsInkiOjgwfV0=" data-look="classic" marker-end="url(#my-svg_flowchart-v2-pointEnd)"/><path d="M419.387,75.174L447.932,82.562C476.477,89.949,533.566,104.725,562.111,120.166C590.656,135.607,590.656,151.714,590.656,159.767L590.656,167.821" id="my-svg-L_S_KV_0" class="edge-thickness-normal edge-pattern-solid edge-thickness-normal edge-pattern-solid flowchart-link" style=";" data-edge="true" data-et="edge" data-id="L_S_KV_0" data-points="W3sieCI6NDE5LjM4NjcxODc1LCJ5Ijo3NS4xNzQxNjc0NTg5MjUzfSx7IngiOjU5MC42NTYyNSwieSI6MTE5LjV9LHsieCI6NTkwLjY1NjI1LCJ5IjoxNzEuODIwNjQ4MTkzMzU5Mzh9XQ==" data-look="classic" marker-end="url(#my-svg_flowchart-v2-pointEnd)"/><path d="M590.656,244.827L590.656,253.547C590.656,262.267,590.656,279.707,590.656,294.344C590.656,308.981,590.656,320.814,590.656,326.731L590.656,332.647" id="my-svg-L_KV_APP_0" class="edge-thickness-normal edge-pattern-solid edge-thickness-normal edge-pattern-solid flowchart-link" style=";" data-edge="true" data-et="edge" data-id="L_KV_APP_0" data-points="W3sieCI6NTkwLjY1NjI1LCJ5IjoyNDQuODI2NzI4ODIwODAwNzh9LHsieCI6NTkwLjY1NjI1LCJ5IjoyOTcuMTQ3Mzc3MDE0MTYwMTZ9LHsieCI6NTkwLjY1NjI1LCJ5IjozMzYuNjQ3Mzc3MDE0MTYwMTZ9XQ==" data-look="classic" marker-end="url(#my-svg_flowchart-v2-pointEnd)"/><path d="M310.368,80L312.459,86.583C314.55,93.167,318.732,106.333,320.823,118.833C322.914,131.333,322.914,143.167,322.914,149.083L322.914,155" id="my-svg-L_S_BLOB_0" class="edge-thickness-normal edge-pattern-solid edge-thickness-normal edge-pattern-solid flowchart-link" style=";" data-edge="true" data-et="edge" data-id="L_S_BLOB_0" data-points="W3sieCI6MzEwLjM2Nzk4OTQ0NTM2NDIzLCJ5Ijo4MH0seyJ4IjozMjIuOTE0MDYyNSwieSI6MTE5LjV9LHsieCI6MzIyLjkxNDA2MjUsInkiOjE1OX1d" data-look="classic" marker-end="url(#my-svg_flowchart-v2-pointEnd)"/><path d="M590.656,384.647L590.656,389.231C590.656,393.814,590.656,402.981,590.728,411.564C590.799,420.148,590.942,428.148,591.013,432.148L591.085,436.148" id="my-svg-L_APP_Client_0" class="edge-thickness-normal edge-pattern-solid edge-thickness-normal edge-pattern-solid flowchart-link" style=";" data-edge="true" data-et="edge" data-id="L_APP_Client_0" data-points="W3sieCI6NTkwLjY1NjI1LCJ5IjozODQuNjQ3Mzc3MDE0MTYwMTZ9LHsieCI6NTkwLjY1NjI1LCJ5Ijo0MTIuMTQ3Mzc3MDE0MTYwMTZ9LHsieCI6NTkxLjE1NjI1LCJ5Ijo0NDAuMTQ3Mzc3MDE0MTYwMTZ9XQ==" data-look="classic" marker-end="url(#my-svg_flowchart-v2-pointEnd)"/></g><g class="edgeLabels"><g class="edgeLabel" transform="translate(49.1796875, 208.32368850708008)"><g class="label" data-id="L_S_LE_0" transform="translate(-41.1796875, -12)"><foreignObject width="82.359375" height="24"><div xmlns="http://www.w3.org/1999/xhtml" class="labelBkg" style="display: table-cell; white-space: nowrap; line-height: 1.5; max-width: 200px; text-align: center;"><span class="edgeLabel"><p>Posh-ACME</p></span></div></foreignObject></g></g><g class="edgeLabel" transform="translate(167.1640625, 119.5)"><g class="label" data-id="L_S_DNS_0" transform="translate(-67.5078125, -12)"><foreignObject width="135.015625" height="24"><div xmlns="http://www.w3.org/1999/xhtml" class="labelBkg" style="display: table-cell; white-space: nowrap; line-height: 1.5; max-width: 200px; text-align: center;"><span class="edgeLabel"><p>write TXT (DNS-01)</p></span></div></foreignObject></g></g><g class="edgeLabel" transform="translate(167.1640625, 297.14737701416016)"><g class="label" data-id="L_DNS_LE_0" transform="translate(-32.1640625, -12)"><foreignObject width="64.328125" height="24"><div xmlns="http://www.w3.org/1999/xhtml" class="labelBkg" style="display: table-cell; white-space: nowrap; line-height: 1.5; max-width: 200px; text-align: center;"><span class="edgeLabel"><p>validated</p></span></div></foreignObject></g></g><g class="edgeLabel" transform="translate(459.5703125, 208.32368850708008)"><g class="label" data-id="L_LE_S_0" transform="translate(-37.7109375, -12)"><foreignObject width="75.421875" height="24"><div xmlns="http://www.w3.org/1999/xhtml" class="labelBkg" style="display: table-cell; white-space: nowrap; line-height: 1.5; max-width: 200px; text-align: center;"><span class="edgeLabel"><p>cert issued</p></span></div></foreignObject></g></g><g class="edgeLabel" transform="translate(590.65625, 119.5)"><g class="label" data-id="L_S_KV_0" transform="translate(-39.9375, -12)"><foreignObject width="79.875" height="24"><div xmlns="http://www.w3.org/1999/xhtml" class="labelBkg" style="display: table-cell; white-space: nowrap; line-height: 1.5; max-width: 200px; text-align: center;"><span class="edgeLabel"><p>upload PFX</p></span></div></foreignObject></g></g><g class="edgeLabel" transform="translate(590.65625, 297.14737701416016)"><g class="label" data-id="L_KV_APP_0" transform="translate(-81.8671875, -12)"><foreignObject width="163.734375" height="24"><div xmlns="http://www.w3.org/1999/xhtml" class="labelBkg" style="display: table-cell; white-space: nowrap; line-height: 1.5; max-width: 200px; text-align: center;"><span class="edgeLabel"><p>auto-import within 24h</p></span></div></foreignObject></g></g><g class="edgeLabel" transform="translate(322.9140625, 119.5)"><g class="label" data-id="L_S_BLOB_0" transform="translate(-42.3671875, -12)"><foreignObject width="84.734375" height="24"><div xmlns="http://www.w3.org/1999/xhtml" class="labelBkg" style="display: table-cell; white-space: nowrap; line-height: 1.5; max-width: 200px; text-align: center;"><span class="edgeLabel"><p>persist state</p></span></div></foreignObject></g></g><g class="edgeLabel"><g class="label" data-id="L_APP_Client_0" transform="translate(0, 0)"><foreignObject width="0" height="0"><div xmlns="http://www.w3.org/1999/xhtml" class="labelBkg" style="display: table-cell; white-space: nowrap; line-height: 1.5; max-width: 200px; text-align: center;"><span class="edgeLabel"></span></div></foreignObject></g></g></g><g class="nodes"><g class="node default act" id="my-svg-flowchart-S-0" data-look="classic" transform="translate(298.93359375, 44)"><rect class="basic label-container" style="fill:#1f6feb !important;stroke:#0b3d91 !important" x="-120.453125" y="-36" width="240.90625" height="72"/><g class="label" style="color:#ffffff !important" transform="translate(-96.453125, -24)"><rect/><foreignObject width="192.90625" height="48"><div style="color: rgb(255, 255, 255) !important; display: table-cell; white-space: nowrap; line-height: 1.5; max-width: 200px; text-align: center;" xmlns="http://www.w3.org/1999/xhtml"><span style="color:#ffffff !important" class="nodeLabel"><p>Azure Automation runbook<br />scheduled daily</p></span></div></foreignObject></g></g><g class="node default ext" id="my-svg-flowchart-LE-1" data-look="classic" transform="translate(167.1640625, 360.64737701416016)"><rect class="basic label-container" style="fill:#dbeafe !important;stroke:#1e40af !important" x="-68.421875" y="-24" width="136.84375" height="48"/><g class="label" style="color:#000000 !important" transform="translate(-44.421875, -12)"><rect/><foreignObject width="88.84375" height="24"><div style="color: rgb(0, 0, 0) !important; display: table-cell; white-space: nowrap; line-height: 1.5; max-width: 200px; text-align: center;" xmlns="http://www.w3.org/1999/xhtml"><span style="color:#000000 !important" class="nodeLabel"><p>Let's Encrypt</p></span></div></foreignObject></g></g><g class="node default vault" id="my-svg-flowchart-DNS-3" data-look="classic" transform="translate(167.1640625, 208.32368850708008)"><path d="M0,10.370492282934679 a44.3046875,10.370492282934679 0,0,0 88.609375,0 a44.3046875,10.370492282934679 0,0,0 -88.609375,0 l0,46.37049228293468 a44.3046875,10.370492282934679 0,0,0 88.609375,0 l0,-46.37049228293468" class="basic label-container outer-path" style="fill:#fde68a !important;stroke:#b45309 !important" transform="translate(-44.3046875, -33.555738424402016)"/><g class="label" style="color:#000000 !important" transform="translate(-38.3046875, -4)"><rect/><foreignObject width="76.609375" height="24"><div style="color: rgb(0, 0, 0) !important; display: table-cell; white-space: nowrap; line-height: 1.5; max-width: 200px; text-align: center;" xmlns="http://www.w3.org/1999/xhtml"><span style="color:#000000 !important" class="nodeLabel"><p>Azure DNS</p></span></div></foreignObject></g></g><g class="node default vault" id="my-svg-flowchart-KV-9" data-look="classic" transform="translate(590.65625, 208.32368850708008)"><path d="M0,12.335359675785206 a60.875,12.335359675785206 0,0,0 121.75,0 a60.875,12.335359675785206 0,0,0 -121.75,0 l0,48.335359675785206 a60.875,12.335359675785206 0,0,0 121.75,0 l0,-48.335359675785206" class="basic label-container outer-path" style="fill:#fde68a !important;stroke:#b45309 !important" transform="translate(-60.875, -36.503039513677805)"/><g class="label" style="color:#000000 !important" transform="translate(-54.875, -4)"><rect/><foreignObject width="109.75" height="24"><div style="color: rgb(0, 0, 0) !important; display: table-cell; white-space: nowrap; line-height: 1.5; max-width: 200px; text-align: center;" xmlns="http://www.w3.org/1999/xhtml"><span style="color:#000000 !important" class="nodeLabel"><p>Azure Key Vault</p></span></div></foreignObject></g></g><g class="node default act" id="my-svg-flowchart-APP-11" data-look="classic" transform="translate(590.65625, 360.64737701416016)"><rect class="basic label-container" style="fill:#1f6feb !important;stroke:#0b3d91 !important" x="-65.625" y="-24" width="131.25" height="48"/><g class="label" style="color:#ffffff !important" transform="translate(-41.625, -12)"><rect/><foreignObject width="83.25" height="24"><div style="color: rgb(255, 255, 255) !important; display: table-cell; white-space: nowrap; line-height: 1.5; max-width: 200px; text-align: center;" xmlns="http://www.w3.org/1999/xhtml"><span style="color:#ffffff !important" class="nodeLabel"><p>App Service</p></span></div></foreignObject></g></g><g class="node default vault" id="my-svg-flowchart-BLOB-13" data-look="classic" transform="translate(322.9140625, 208.32368850708008)"><path d="M0,12.882459860648288 a66.4453125,12.882459860648288 0,0,0 132.890625,0 a66.4453125,12.882459860648288 0,0,0 -132.890625,0 l0,72.88245986064828 a66.4453125,12.882459860648288 0,0,0 132.890625,0 l0,-72.88245986064828" class="basic label-container outer-path" style="fill:#fde68a !important;stroke:#b45309 !important" transform="translate(-66.4453125, -49.32368979097243)"/><g class="label" style="color:#000000 !important" transform="translate(-60.4453125, -16)"><rect/><foreignObject width="120.890625" height="48"><div style="color: rgb(0, 0, 0) !important; display: table-cell; white-space: nowrap; line-height: 1.5; max-width: 200px; text-align: center;" xmlns="http://www.w3.org/1999/xhtml"><span style="color:#000000 !important" class="nodeLabel"><p>Azure Storage<br />Posh-ACME state</p></span></div></foreignObject></g></g><g class="node default ok" id="my-svg-flowchart-Client-15" data-look="classic" transform="translate(590.65625, 457.64737701416016)"><g class="basic label-container outer-path"><path d="M-54.140625 -18 C-18.0117806589841 -18, 18.117063682031798 -18, 54.140625 -18 C54.140625 -18, 54.140625 -18, 54.140625 -18 C54.55764666864769 -17.986626926769905, 54.97466833729539 -17.97325385353981, 55.29388895965283 -17.963017069506055 C55.64240265006713 -17.929396372940822, 55.99091634048143 -17.895775676375592, 56.44241391032111 -17.85222024881843 C56.74825898061042 -17.802773589717997, 57.05410405089974 -17.753326930617565, 57.5814803166247 -17.668064825839178 C57.86635252966635 -17.603044602177338, 58.151224742708 -17.5380243785155, 58.70640751037113 -17.41130753470253 C58.9614149099305 -17.335622677074465, 59.21642230948987 -17.2599378194464, 59.81257292442517 -17.083003446192034 C60.053231692002704 -16.99443879509824, 60.29389045958024 -16.905874144004446, 60.89543108782873 -16.68450163222839 C61.26873613895303 -16.519250559796557, 61.64204119007733 -16.353999487364725, 61.950532304116045 -16.217439622243546 C62.1825502656792 -16.096396000310648, 62.41456822724235 -15.975352378377746, 62.973540936070876 -15.683736674221011 C63.23114887204426 -15.527573229561678, 63.48875680801764 -15.371409784902346, 63.96025322178988 -15.085585888053133 C64.21687384592508 -14.90657844958419, 64.47349447006027 -14.727571011115248, 64.90661454884189 -14.425445193623219 C65.1432070600197 -14.236768961950045, 65.37979957119752 -14.048092730276872, 65.80873611554019 -13.706027250644421 C66.1124160998124 -13.430233123860468, 66.41609608408464 -13.154438997076515, 66.66291091086275 -12.930288301759097 C66.94142593861399 -12.642698669096905, 67.21994096636524 -12.355109036434714, 67.46562894735568 -12.101416024703706 C67.67305466116693 -11.857761978403541, 67.88048037497816 -11.614107932103378, 68.21359168442453 -11.222816433457204 C68.40201804434018 -10.970342277164765, 68.59044440425582 -10.717868120872323, 68.9037255827452 -10.298099882199057 C69.09765927513119 -10.000165652206084, 69.29159296751719 -9.70223142221311, 69.53319473409623 -9.331066229589453 C69.72030822301039 -8.998827282727033, 69.90742171192456 -8.666588335864612, 70.099412514714 -8.325689224335035 C70.29297326257348 -7.923756189868292, 70.48653401043296 -7.52182315540155, 70.60005221428463 -7.286100176203093 C70.72320187489076 -6.981918133569231, 70.8463515354969 -6.677736090935368, 71.03305659689568 -6.216570979583546 C71.13826376526478 -5.899703750941706, 71.24347093363389 -5.582836522299867, 71.3966463546599 -5.121496559358589 C71.4935997538054 -4.751771228547774, 71.5905531529509 -4.38204589773696, 71.68932741927283 -4.005376811213661 C71.76316304431671 -3.6262464817781677, 71.83699866936061 -3.2471161523426746, 71.9098971014601 -2.872798110600833 C71.9548773497813 -2.5239401869762994, 71.9998575981025 -2.175082263351766, 72.05744903308556 -1.728414466338275 C72.07863212921633 -1.3984706454141127, 72.0998152253471 -1.0685268244899504, 72.13137689161238 -0.576928396289793 C72.13137689161238 -0.16529667401046444, 72.13137689161238 0.2463350482688641, 72.13137689161238 0.5769283962897886 C72.11306577014005 0.8621388936924355, 72.09475464866773 1.1473493910950823, 72.05744903308556 1.7284144663382628 C72.01693355784442 2.042644491623033, 71.97641808260329 2.356874516907803, 71.9098971014601 2.8727981106008205 C71.84010629007973 3.2311591767457988, 71.77031547869937 3.589520242890777, 71.68932741927283 4.005376811213657 C71.59389244512336 4.369311729425038, 71.49845747097388 4.7332466476364194, 71.3966463546599 5.121496559358577 C71.2812360215768 5.469094094465429, 71.16582568849371 5.816691629572282, 71.03305659689569 6.216570979583534 C70.88457567810627 6.583321719676674, 70.73609475931686 6.950072459769814, 70.60005221428463 7.286100176203088 C70.47399107851777 7.547868821899176, 70.34792994275091 7.809637467595263, 70.099412514714 8.325689224335031 C69.87907420380517 8.716922207027022, 69.65873589289636 9.108155189719012, 69.53319473409623 9.33106622958945 C69.35387500804798 9.606549482888218, 69.17455528199973 9.882032736186988, 68.90372558274521 10.298099882199049 C68.70669471909862 10.562103289604527, 68.50966385545205 10.826106697010006, 68.21359168442454 11.2228164334572 C67.93976043024395 11.544474206057494, 67.66592917606334 11.866131978657787, 67.46562894735568 12.101416024703695 C67.16390703202897 12.412968674108464, 66.86218511670226 12.724521323513233, 66.66291091086276 12.930288301759093 C66.33521300654975 13.227894868044746, 66.00751510223674 13.525501434330398, 65.8087361155402 13.706027250644409 C65.55788880875359 13.906071302479551, 65.30704150196698 14.106115354314692, 64.90661454884189 14.425445193623217 C64.53234026976355 14.68652272863586, 64.1580659906852 14.947600263648502, 63.960253221789884 15.085585888053126 C63.74221476012633 15.2177620848498, 63.52417629846277 15.349938281646477, 62.97354093607088 15.68373667422101 C62.663333546875776 15.84557167046678, 62.35312615768067 16.00740666671255, 61.95053230411605 16.217439622243543 C61.65200511423081 16.349588753711288, 61.35347792434557 16.481737885179033, 60.89543108782874 16.68450163222839 C60.625056962366415 16.784001809709544, 60.35468283690409 16.883501987190694, 59.81257292442518 17.08300344619203 C59.408840880457845 17.202828997608794, 59.00510883649051 17.322654549025557, 58.70640751037115 17.411307534702527 C58.44301427018269 17.47142532297402, 58.17962102999423 17.53154311124551, 57.581480316624706 17.668064825839174 C57.14776873649193 17.738183950631505, 56.714057156359154 17.808303075423837, 56.44241391032112 17.85222024881843 C56.1142701810271 17.88387587973285, 55.78612645173308 17.91553151064727, 55.29388895965283 17.963017069506055 C54.89473095634015 17.97581728975837, 54.49557295302746 17.988617510010688, 54.140625 18 C54.140625 18, 54.140625 18, 54.140625 18 C13.67280896446885 18, -26.7950070710623 18, -54.140625 18 C-54.46468625599916 17.989607986267078, -54.788747511998324 17.979215972534153, -55.293888959652826 17.963017069506055 C-55.555418444800615 17.937787634609073, -55.816947929948405 17.912558199712088, -56.442413910321115 17.85222024881843 C-56.89400738429644 17.779210118105794, -57.34560085827175 17.70619998739316, -57.5814803166247 17.668064825839174 C-57.82415393049757 17.612676157066016, -58.06682754437044 17.55728748829286, -58.70640751037113 17.41130753470253 C-59.11870583819743 17.28893955520177, -59.53100416602373 17.16657157570101, -59.81257292442516 17.083003446192038 C-60.21768610852057 16.933918049619706, -60.62279929261597 16.784832653047374, -60.89543108782873 16.68450163222839 C-61.17150317897863 16.562292706863943, -61.44757527012853 16.4400837814995, -61.950532304116045 16.217439622243546 C-62.24261998557733 16.06505766591628, -62.53470766703862 15.912675709589019, -62.973540936070876 15.683736674221013 C-63.24896006166016 15.51677598174635, -63.524379187249444 15.349815289271687, -63.96025322178986 15.085585888053139 C-64.17873249494684 14.933184204914134, -64.39721176810382 14.780782521775132, -64.90661454884189 14.42544519362322 C-65.2289928676788 14.16835706319814, -65.5513711865157 13.91126893277306, -65.80873611554019 13.706027250644423 C-66.13063765115652 13.413684793045578, -66.45253918677287 13.121342335446732, -66.66291091086275 12.930288301759106 C-66.87406410637186 12.712255291396193, -67.08521730188097 12.49422228103328, -67.46562894735568 12.101416024703703 C-67.64944742565946 11.885492380520363, -67.83326590396324 11.669568736337023, -68.21359168442453 11.222816433457206 C-68.42068819221242 10.94532597990142, -68.6277847000003 10.667835526345636, -68.9037255827452 10.29809988219906 C-69.14936173022465 9.920736797129397, -69.3949978777041 9.543373712059733, -69.53319473409623 9.33106622958946 C-69.71320905136767 9.011432580847755, -69.89322336863913 8.691798932106051, -70.099412514714 8.325689224335036 C-70.24045804274269 8.03280516749264, -70.38150357077137 7.739921110650243, -70.60005221428463 7.286100176203095 C-70.70678137263033 7.02247709162129, -70.81351053097605 6.758854007039485, -71.03305659689568 6.2165709795835475 C-71.12937278098244 5.926481979014158, -71.2256889650692 5.636392978444768, -71.3966463546599 5.121496559358584 C-71.51086659858318 4.68592526591222, -71.62508684250646 4.250353972465857, -71.68932741927281 4.005376811213663 C-71.7663367547031 3.609950149707962, -71.8433460901334 3.214523488202261, -71.9098971014601 2.8727981106008347 C-71.95451038447708 2.526786297410388, -71.99912366749405 2.1807744842199406, -72.05744903308556 1.7284144663382852 C-72.07620581867442 1.436262390586895, -72.09496260426329 1.1441103148355047, -72.13137689161238 0.5769283962897952 C-72.13137689161238 0.1830747899501921, -72.13137689161238 -0.21077881638941098, -72.13137689161238 -0.5769283962897864 C-72.10885160617336 -0.9277778990857128, -72.08632632073433 -1.2786274018816393, -72.05744903308556 -1.7284144663382603 C-72.01761745510781 -2.0373403194989983, -71.97778587713006 -2.3462661726597362, -71.9098971014601 -2.8727981106008262 C-71.86217747325534 -3.117828315885271, -71.81445784505058 -3.362858521169716, -71.68932741927283 -4.005376811213655 C-71.59144948687933 -4.3786277879943345, -71.49357155448581 -4.751878764775014, -71.3966463546599 -5.121496559358575 C-71.27013249415135 -5.5025361499640155, -71.14361863364283 -5.883575740569457, -71.03305659689569 -6.2165709795835244 C-70.91001176234323 -6.5204940998381415, -70.78696692779077 -6.824417220092759, -70.60005221428463 -7.286100176203086 C-70.44988194353006 -7.597931956554016, -70.29971167277549 -7.909763736904947, -70.099412514714 -8.32568922433503 C-69.89803700366184 -8.683251835689823, -69.69666149260966 -9.040814447044617, -69.53319473409623 -9.331066229589455 C-69.37855393905826 -9.568636017635546, -69.2239131440203 -9.806205805681639, -68.90372558274521 -10.298099882199054 C-68.6705346473748 -10.610554491464168, -68.43734371200438 -10.923009100729283, -68.21359168442454 -11.2228164334572 C-68.05960482293668 -11.403698163061476, -67.90561796144883 -11.58457989266575, -67.46562894735568 -12.101416024703695 C-67.26760148496578 -12.305895637978296, -67.06957402257588 -12.510375251252897, -66.66291091086276 -12.930288301759086 C-66.4125967127728 -13.157617033513635, -66.16228251468284 -13.384945765268181, -65.8087361155402 -13.706027250644407 C-65.62475159797123 -13.852750007372036, -65.44076708040225 -13.999472764099664, -64.9066145488419 -14.425445193623215 C-64.71202902317627 -14.561179632855918, -64.51744349751063 -14.696914072088619, -63.960253221789884 -15.085585888053124 C-63.602518231465965 -15.302446941471638, -63.244783241142045 -15.519307994890154, -62.97354093607088 -15.683736674221008 C-62.66647843501312 -15.843930984339924, -62.35941593395536 -16.004125294458838, -61.95053230411605 -16.217439622243543 C-61.627915034561866 -16.360252717373903, -61.30529776500768 -16.503065812504264, -60.89543108782874 -16.684501632228386 C-60.61793266722606 -16.786623616177454, -60.340434246623374 -16.888745600126523, -59.81257292442518 -17.08300344619203 C-59.46995423278508 -17.1846908754286, -59.12733554114498 -17.28637830466517, -58.70640751037115 -17.411307534702523 C-58.383065506205156 -17.485108237149646, -58.05972350203916 -17.558908939596765, -57.581480316624706 -17.668064825839174 C-57.323862211916804 -17.709714523150108, -57.0662441072089 -17.751364220461042, -56.44241391032112 -17.85222024881843 C-56.02951159553403 -17.892052438538254, -55.616609280746935 -17.93188462825808, -55.29388895965283 -17.963017069506055 C-54.83904799183863 -17.97760293404962, -54.38420702402443 -17.992188798593183, -54.14062500000001 -18 C-54.14062500000001 -18, -54.140625 -18, -54.140625 -18" stroke="none" stroke-width="0" fill="#1a7f37" style="fill:#1a7f37 !important;stroke:#0b3d20 !important"/><path d="M-54.140625 -18 C-13.01599566095571 -18, 28.10863367808858 -18, 54.140625 -18 M-54.140625 -18 C-13.389518782451923 -18, 27.361587435096155 -18, 54.140625 -18 M54.140625 -18 C54.140625 -18, 54.140625 -18, 54.140625 -18 M54.140625 -18 C54.140625 -18, 54.140625 -18, 54.140625 -18 M54.140625 -18 C54.522890940410946 -17.987741475326537, 54.90515688082189 -17.975482950653074, 55.29388895965283 -17.963017069506055 M54.140625 -18 C54.593582227448294 -17.985474543343493, 55.04653945489659 -17.970949086686982, 55.29388895965283 -17.963017069506055 M55.29388895965283 -17.963017069506055 C55.5568032141225 -17.937654047578018, 55.819717468592174 -17.91229102564998, 56.44241391032111 -17.85222024881843 M55.29388895965283 -17.963017069506055 C55.564969996188665 -17.936866207934088, 55.8360510327245 -17.91071534636212, 56.44241391032111 -17.85222024881843 M56.44241391032111 -17.85222024881843 C56.794467632941114 -17.79530293316262, 57.14652135556113 -17.738385617506815, 57.5814803166247 -17.668064825839178 M56.44241391032111 -17.85222024881843 C56.7647875367047 -17.800101380949542, 57.087161163088304 -17.747982513080654, 57.5814803166247 -17.668064825839178 M57.5814803166247 -17.668064825839178 C57.91441370959614 -17.592074951486875, 58.24734710256757 -17.516085077134573, 58.70640751037113 -17.41130753470253 M57.5814803166247 -17.668064825839178 C57.81061530302257 -17.615766260439386, 58.03975028942044 -17.5634676950396, 58.70640751037113 -17.41130753470253 M58.70640751037113 -17.41130753470253 C58.96560878223232 -17.334377957789368, 59.22481005409351 -17.257448380876205, 59.81257292442517 -17.083003446192034 M58.70640751037113 -17.41130753470253 C59.002095521666156 -17.323548885048208, 59.29778353296118 -17.23579023539389, 59.81257292442517 -17.083003446192034 M59.81257292442517 -17.083003446192034 C60.05521093927859 -16.993710413804756, 60.297848954132 -16.904417381417474, 60.89543108782873 -16.68450163222839 M59.81257292442517 -17.083003446192034 C60.17374392479635 -16.950089179427312, 60.53491492516753 -16.817174912662587, 60.89543108782873 -16.68450163222839 M60.89543108782873 -16.68450163222839 C61.251539041863886 -16.52686320454416, 61.60764699589904 -16.369224776859934, 61.950532304116045 -16.217439622243546 M60.89543108782873 -16.68450163222839 C61.14426990588772 -16.57434806901495, 61.39310872394671 -16.464194505801505, 61.950532304116045 -16.217439622243546 M61.950532304116045 -16.217439622243546 C62.2474323470077 -16.062547060040522, 62.54433238989936 -15.907654497837498, 62.973540936070876 -15.683736674221011 M61.950532304116045 -16.217439622243546 C62.3201891588066 -16.024589877928, 62.68984601349715 -15.831740133612454, 62.973540936070876 -15.683736674221011 M62.973540936070876 -15.683736674221011 C63.32443105357043 -15.471025022933567, 63.67532117106998 -15.258313371646125, 63.96025322178988 -15.085585888053133 M62.973540936070876 -15.683736674221011 C63.257163993615286 -15.511802709983497, 63.5407870511597 -15.339868745745983, 63.96025322178988 -15.085585888053133 M63.96025322178988 -15.085585888053133 C64.33401682079632 -14.824864581351658, 64.70778041980277 -14.564143274650183, 64.90661454884189 -14.425445193623219 M63.96025322178988 -15.085585888053133 C64.28348450312876 -14.860113738647776, 64.60671578446765 -14.634641589242419, 64.90661454884189 -14.425445193623219 M64.90661454884189 -14.425445193623219 C65.18112662267679 -14.206529119812961, 65.4556386965117 -13.987613046002703, 65.80873611554019 -13.706027250644421 M64.90661454884189 -14.425445193623219 C65.19947642018023 -14.19189564461259, 65.49233829151856 -13.95834609560196, 65.80873611554019 -13.706027250644421 M65.80873611554019 -13.706027250644421 C65.9964508201425 -13.535549722583522, 66.1841655247448 -13.365072194522622, 66.66291091086275 -12.930288301759097 M65.80873611554019 -13.706027250644421 C66.13616002485065 -13.408669519370568, 66.46358393416112 -13.111311788096714, 66.66291091086275 -12.930288301759097 M66.66291091086275 -12.930288301759097 C66.92101213527644 -12.663777597047348, 67.17911335969013 -12.3972668923356, 67.46562894735568 -12.101416024703706 M66.66291091086275 -12.930288301759097 C66.97545454795726 -12.6075613361492, 67.28799818505176 -12.284834370539302, 67.46562894735568 -12.101416024703706 M67.46562894735568 -12.101416024703706 C67.69771879262551 -11.828790086163457, 67.92980863789532 -11.556164147623207, 68.21359168442453 -11.222816433457204 M67.46562894735568 -12.101416024703706 C67.7246867401173 -11.797112000519892, 67.98374453287894 -11.49280797633608, 68.21359168442453 -11.222816433457204 M68.21359168442453 -11.222816433457204 C68.47196894875765 -10.876614437903838, 68.73034621309077 -10.530412442350471, 68.9037255827452 -10.298099882199057 M68.21359168442453 -11.222816433457204 C68.40183951244816 -10.970581493635478, 68.59008734047178 -10.718346553813753, 68.9037255827452 -10.298099882199057 M68.9037255827452 -10.298099882199057 C69.08617968617861 -10.017801383538517, 69.26863378961201 -9.737502884877976, 69.53319473409623 -9.331066229589453 M68.9037255827452 -10.298099882199057 C69.1347593345517 -9.943169998175316, 69.36579308635821 -9.588240114151574, 69.53319473409623 -9.331066229589453 M69.53319473409623 -9.331066229589453 C69.69844758968759 -9.037643050820838, 69.86370044527894 -8.744219872052224, 70.099412514714 -8.325689224335035 M69.53319473409623 -9.331066229589453 C69.75303067602384 -8.940725253893975, 69.97286661795145 -8.550384278198496, 70.099412514714 -8.325689224335035 M70.099412514714 -8.325689224335035 C70.2168276576783 -8.081874167688095, 70.33424280064258 -7.838059111041156, 70.60005221428463 -7.286100176203093 M70.099412514714 -8.325689224335035 C70.2278597536954 -8.05896578425954, 70.35630699267679 -7.792242344184044, 70.60005221428463 -7.286100176203093 M70.60005221428463 -7.286100176203093 C70.76035269242189 -6.890154896005157, 70.92065317055913 -6.49420961580722, 71.03305659689568 -6.216570979583546 M70.60005221428463 -7.286100176203093 C70.72068981377214 -6.988122973099622, 70.84132741325965 -6.69014576999615, 71.03305659689568 -6.216570979583546 M71.03305659689568 -6.216570979583546 C71.1470000390298 -5.873391486297631, 71.26094348116395 -5.530211993011718, 71.3966463546599 -5.121496559358589 M71.03305659689568 -6.216570979583546 C71.13814953706596 -5.900047788076777, 71.24324247723624 -5.583524596570007, 71.3966463546599 -5.121496559358589 M71.3966463546599 -5.121496559358589 C71.50734681770213 -4.699347715894346, 71.61804728074438 -4.277198872430102, 71.68932741927283 -4.005376811213661 M71.3966463546599 -5.121496559358589 C71.48424864242733 -4.787431069029674, 71.57185093019476 -4.453365578700759, 71.68932741927283 -4.005376811213661 M71.68932741927283 -4.005376811213661 C71.77385969802778 -3.5713214257104453, 71.85839197678273 -3.1372660402072294, 71.9098971014601 -2.872798110600833 M71.68932741927283 -4.005376811213661 C71.74655911485688 -3.7115041503126673, 71.80379081044094 -3.4176314894116744, 71.9098971014601 -2.872798110600833 M71.9098971014601 -2.872798110600833 C71.96067328715613 -2.478988041234431, 72.01144947285215 -2.08517797186803, 72.05744903308556 -1.728414466338275 M71.9098971014601 -2.872798110600833 C71.95250566988457 -2.542334467914196, 71.99511423830903 -2.2118708252275594, 72.05744903308556 -1.728414466338275 M72.05744903308556 -1.728414466338275 C72.07974193624094 -1.3811845051858258, 72.10203483939631 -1.0339545440333768, 72.13137689161238 -0.576928396289793 M72.05744903308556 -1.728414466338275 C72.07851966002244 -1.4002224438924853, 72.09959028695931 -1.0720304214466956, 72.13137689161238 -0.576928396289793 M72.13137689161238 -0.576928396289793 C72.13137689161238 -0.23016483914123936, 72.13137689161238 0.11659871800731425, 72.13137689161238 0.5769283962897886 M72.13137689161238 -0.576928396289793 C72.13137689161238 -0.2935674670260109, 72.13137689161238 -0.010206537762228796, 72.13137689161238 0.5769283962897886 M72.13137689161238 0.5769283962897886 C72.11046627128604 0.9026281866213098, 72.08955565095971 1.228327976952831, 72.05744903308556 1.7284144663382628 M72.13137689161238 0.5769283962897886 C72.11592561620104 0.8175944828663545, 72.1004743407897 1.0582605694429204, 72.05744903308556 1.7284144663382628 M72.05744903308556 1.7284144663382628 C72.00261183907202 2.1537209142785234, 71.94777464505849 2.5790273622187843, 71.9098971014601 2.8727981106008205 M72.05744903308556 1.7284144663382628 C72.00199826202443 2.15847969669517, 71.9465474909633 2.5885449270520766, 71.9098971014601 2.8727981106008205 M71.9098971014601 2.8727981106008205 C71.84944271241505 3.1832186213074825, 71.78898832337002 3.493639132014144, 71.68932741927283 4.005376811213657 M71.9098971014601 2.8727981106008205 C71.85993907312296 3.129322027479032, 71.80998104478581 3.3858459443572437, 71.68932741927283 4.005376811213657 M71.68932741927283 4.005376811213657 C71.58818572651708 4.391073920778239, 71.48704403376134 4.776771030342821, 71.3966463546599 5.121496559358577 M71.68932741927283 4.005376811213657 C71.58758189802698 4.393376580511933, 71.48583637678112 4.781376349810209, 71.3966463546599 5.121496559358577 M71.3966463546599 5.121496559358577 C71.25638280083055 5.543948035530175, 71.11611924700121 5.9663995117017725, 71.03305659689569 6.216570979583534 M71.3966463546599 5.121496559358577 C71.3145981990451 5.368612531472061, 71.2325500434303 5.615728503585544, 71.03305659689569 6.216570979583534 M71.03305659689569 6.216570979583534 C70.90160233232218 6.541265554575417, 70.77014806774866 6.8659601295672985, 70.60005221428463 7.286100176203088 M71.03305659689569 6.216570979583534 C70.91448831655411 6.509436924388987, 70.79592003621254 6.802302869194439, 70.60005221428463 7.286100176203088 M70.60005221428463 7.286100176203088 C70.4222379919801 7.6553352134333075, 70.24442376967558 8.024570250663528, 70.099412514714 8.325689224335031 M70.60005221428463 7.286100176203088 C70.47162022219904 7.552791955773228, 70.34318823011344 7.819483735343367, 70.099412514714 8.325689224335031 M70.099412514714 8.325689224335031 C69.91749907508654 8.64869495712684, 69.73558563545906 8.97170068991865, 69.53319473409623 9.33106622958945 M70.099412514714 8.325689224335031 C69.98567678228885 8.527638534247652, 69.87194104986371 8.729587844160271, 69.53319473409623 9.33106622958945 M69.53319473409623 9.33106622958945 C69.39541083457644 9.542739299409384, 69.25762693505665 9.754412369229318, 68.90372558274521 10.298099882199049 M69.53319473409623 9.33106622958945 C69.37455905039543 9.574773239399455, 69.21592336669464 9.818480249209463, 68.90372558274521 10.298099882199049 M68.90372558274521 10.298099882199049 C68.69436881013965 10.578618884696157, 68.48501203753408 10.859137887193265, 68.21359168442454 11.2228164334572 M68.90372558274521 10.298099882199049 C68.63096315037947 10.663576692400346, 68.35820071801375 11.029053502601643, 68.21359168442454 11.2228164334572 M68.21359168442454 11.2228164334572 C67.94062734721567 11.54345587605353, 67.6676630100068 11.86409531864986, 67.46562894735568 12.101416024703695 M68.21359168442454 11.2228164334572 C68.01495783205168 11.456143059040746, 67.81632397967883 11.689469684624292, 67.46562894735568 12.101416024703695 M67.46562894735568 12.101416024703695 C67.17766247932386 12.39876504543328, 66.88969601129202 12.696114066162865, 66.66291091086276 12.930288301759093 M67.46562894735568 12.101416024703695 C67.2534222182195 12.320536895033287, 67.04121548908331 12.539657765362877, 66.66291091086276 12.930288301759093 M66.66291091086276 12.930288301759093 C66.3481433115939 13.216151907120775, 66.03337571232503 13.502015512482458, 65.8087361155402 13.706027250644409 M66.66291091086276 12.930288301759093 C66.43250229434888 13.139539310999073, 66.202093677835 13.348790320239052, 65.8087361155402 13.706027250644409 M65.8087361155402 13.706027250644409 C65.53224080008869 13.926524906867636, 65.25574548463717 14.14702256309086, 64.90661454884189 14.425445193623217 M65.8087361155402 13.706027250644409 C65.5939394878835 13.877321845222307, 65.3791428602268 14.048616439800202, 64.90661454884189 14.425445193623217 M64.90661454884189 14.425445193623217 C64.61166132770558 14.631191792368755, 64.31670810656927 14.836938391114293, 63.960253221789884 15.085585888053126 M64.90661454884189 14.425445193623217 C64.6356326062535 14.614470466153652, 64.3646506636651 14.803495738684086, 63.960253221789884 15.085585888053126 M63.960253221789884 15.085585888053126 C63.73348242466965 15.223055677920534, 63.50671162754943 15.360525467787944, 62.97354093607088 15.68373667422101 M63.960253221789884 15.085585888053126 C63.737946872655414 15.22034930331556, 63.51564052352094 15.355112718577994, 62.97354093607088 15.68373667422101 M62.97354093607088 15.68373667422101 C62.607266337460125 15.874821897706164, 62.24099173884937 16.06590712119132, 61.95053230411605 16.217439622243543 M62.97354093607088 15.68373667422101 C62.6775500393183 15.838154935465615, 62.38155914256571 15.99257319671022, 61.95053230411605 16.217439622243543 M61.95053230411605 16.217439622243543 C61.57306817089517 16.38453179694475, 61.195604037674286 16.551623971645952, 60.89543108782874 16.68450163222839 M61.95053230411605 16.217439622243543 C61.550426396665145 16.39455463875201, 61.15032048921424 16.57166965526048, 60.89543108782874 16.68450163222839 M60.89543108782874 16.68450163222839 C60.6765968462381 16.7650346560153, 60.457762604647456 16.845567679802212, 59.81257292442518 17.08300344619203 M60.89543108782874 16.68450163222839 C60.585546377661274 16.798542070112877, 60.27566166749381 16.912582507997364, 59.81257292442518 17.08300344619203 M59.81257292442518 17.08300344619203 C59.4139847838093 17.20130231409498, 59.01539664319341 17.319601181997935, 58.70640751037115 17.411307534702527 M59.81257292442518 17.08300344619203 C59.561014001309616 17.157664814112998, 59.30945507819405 17.232326182033965, 58.70640751037115 17.411307534702527 M58.70640751037115 17.411307534702527 C58.28738380742102 17.506946960515688, 57.868360104470895 17.602586386328852, 57.581480316624706 17.668064825839174 M58.70640751037115 17.411307534702527 C58.45783756262826 17.468042003204342, 58.209267614885356 17.524776471706158, 57.581480316624706 17.668064825839174 M57.581480316624706 17.668064825839174 C57.31215581203783 17.711607123098055, 57.04283130745095 17.755149420356933, 56.44241391032112 17.85222024881843 M57.581480316624706 17.668064825839174 C57.16724160207595 17.735035728738207, 56.75300288752719 17.802006631637244, 56.44241391032112 17.85222024881843 M56.44241391032112 17.85222024881843 C56.04330041089215 17.890722248104133, 55.64418691146317 17.929224247389836, 55.29388895965283 17.963017069506055 M56.44241391032112 17.85222024881843 C56.04110357228287 17.890934174482684, 55.63979323424462 17.929648100146938, 55.29388895965283 17.963017069506055 M55.29388895965283 17.963017069506055 C55.018788077107985 17.971839019357883, 54.743687194563144 17.980660969209712, 54.140625 18 M55.29388895965283 17.963017069506055 C55.01115492496232 17.972083799690168, 54.728420890271806 17.981150529874277, 54.140625 18 M54.140625 18 C54.140625 18, 54.140625 18, 54.140625 18 M54.140625 18 C54.140625 18, 54.140625 18, 54.140625 18 M54.140625 18 C13.007070921040523 18, -28.126483157918955 18, -54.140625 18 M54.140625 18 C29.877666734490976 18, 5.614708468981952 18, -54.140625 18 M-54.140625 18 C-54.545312517244255 17.987022458998442, -54.95000003448852 17.97404491799689, -55.293888959652826 17.963017069506055 M-54.140625 18 C-54.49368837654264 17.98867794471045, -54.84675175308528 17.977355889420902, -55.293888959652826 17.963017069506055 M-55.293888959652826 17.963017069506055 C-55.71825572665949 17.922078917868628, -56.14262249366616 17.881140766231205, -56.442413910321115 17.85222024881843 M-55.293888959652826 17.963017069506055 C-55.5365771477616 17.939605231874452, -55.77926533587037 17.916193394242846, -56.442413910321115 17.85222024881843 M-56.442413910321115 17.85222024881843 C-56.755198220926246 17.80165170715835, -57.06798253153138 17.751083165498265, -57.5814803166247 17.668064825839174 M-56.442413910321115 17.85222024881843 C-56.822231568001186 17.790814275454643, -57.20204922568125 17.729408302090853, -57.5814803166247 17.668064825839174 M-57.5814803166247 17.668064825839174 C-58.014193292534415 17.56930091280384, -58.446906268444124 17.47053699976851, -58.70640751037113 17.41130753470253 M-57.5814803166247 17.668064825839174 C-57.94495107488513 17.585104997134593, -58.308421833145566 17.50214516843001, -58.70640751037113 17.41130753470253 M-58.70640751037113 17.41130753470253 C-59.08664791595993 17.29845417824639, -59.46688832154874 17.185600821790253, -59.81257292442516 17.083003446192038 M-58.70640751037113 17.41130753470253 C-58.996447488376376 17.325225191681483, -59.28648746638163 17.23914284866044, -59.81257292442516 17.083003446192038 M-59.81257292442516 17.083003446192038 C-60.0929846809517 16.979809327692408, -60.37339643747824 16.87661520919278, -60.89543108782873 16.68450163222839 M-59.81257292442516 17.083003446192038 C-60.08848870634254 16.981463887908916, -60.36440448825991 16.879924329625794, -60.89543108782873 16.68450163222839 M-60.89543108782873 16.68450163222839 C-61.12485431816535 16.582942773756695, -61.35427754850196 16.481383915285, -61.950532304116045 16.217439622243546 M-60.89543108782873 16.68450163222839 C-61.16507123772949 16.56513993645818, -61.43471138763025 16.44577824068797, -61.950532304116045 16.217439622243546 M-61.950532304116045 16.217439622243546 C-62.20045007392315 16.08705768181515, -62.450367843730255 15.956675741386755, -62.973540936070876 15.683736674221013 M-61.950532304116045 16.217439622243546 C-62.19503124299069 16.089884682441692, -62.43953018186532 15.962329742639836, -62.973540936070876 15.683736674221013 M-62.973540936070876 15.683736674221013 C-63.272109148742814 15.50274286911771, -63.57067736141475 15.321749064014409, -63.96025322178986 15.085585888053139 M-62.973540936070876 15.683736674221013 C-63.28713013415633 15.493637059486929, -63.60071933224178 15.303537444752843, -63.96025322178986 15.085585888053139 M-63.96025322178986 15.085585888053139 C-64.2115441932251 14.910296184590747, -64.46283516466033 14.735006481128353, -64.90661454884189 14.42544519362322 M-63.96025322178986 15.085585888053139 C-64.23418354937851 14.894503949780061, -64.50811387696716 14.703422011506984, -64.90661454884189 14.42544519362322 M-64.90661454884189 14.42544519362322 C-65.12539219900756 14.250975839533863, -65.34416984917326 14.076506485444506, -65.80873611554019 13.706027250644423 M-64.90661454884189 14.42544519362322 C-65.23508300565825 14.163500340224896, -65.56355146247462 13.901555486826572, -65.80873611554019 13.706027250644423 M-65.80873611554019 13.706027250644423 C-66.14228735151237 13.403104843416578, -66.47583858748456 13.100182436188733, -66.66291091086275 12.930288301759106 M-65.80873611554019 13.706027250644423 C-66.0067347963502 13.526210087490789, -66.20473347716022 13.346392924337152, -66.66291091086275 12.930288301759106 M-66.66291091086275 12.930288301759106 C-66.86551197119888 12.721086073105639, -67.06811303153503 12.511883844452171, -67.46562894735568 12.101416024703703 M-66.66291091086275 12.930288301759106 C-66.88245171189082 12.703594400062642, -67.1019925129189 12.476900498366177, -67.46562894735568 12.101416024703703 M-67.46562894735568 12.101416024703703 C-67.71589814796025 11.807435580952635, -67.96616734856482 11.513455137201566, -68.21359168442453 11.222816433457206 M-67.46562894735568 12.101416024703703 C-67.70296767670787 11.822624448250341, -67.94030640606006 11.54383287179698, -68.21359168442453 11.222816433457206 M-68.21359168442453 11.222816433457206 C-68.44128801434954 10.917724094920086, -68.66898434427455 10.612631756382966, -68.9037255827452 10.29809988219906 M-68.21359168442453 11.222816433457206 C-68.4401250707582 10.91928233338613, -68.66665845709188 10.615748233315053, -68.9037255827452 10.29809988219906 M-68.9037255827452 10.29809988219906 C-69.04924671848143 10.07454033981184, -69.19476785421766 9.85098079742462, -69.53319473409623 9.33106622958946 M-68.9037255827452 10.29809988219906 C-69.1288153996375 9.952301478373533, -69.35390521652981 9.606503074548005, -69.53319473409623 9.33106622958946 M-69.53319473409623 9.33106622958946 C-69.72498876873934 8.990516499828638, -69.91678280338245 8.649966770067818, -70.099412514714 8.325689224335036 M-69.53319473409623 9.33106622958946 C-69.71866849118543 9.001738792623106, -69.90414224827464 8.672411355656752, -70.099412514714 8.325689224335036 M-70.099412514714 8.325689224335036 C-70.23474485019509 8.04466873406048, -70.37007718567615 7.763648243785923, -70.60005221428463 7.286100176203095 M-70.099412514714 8.325689224335036 C-70.22177693943898 8.071596878214358, -70.34414136416396 7.81750453209368, -70.60005221428463 7.286100176203095 M-70.60005221428463 7.286100176203095 C-70.71419204780375 7.004172580667316, -70.82833188132285 6.722244985131537, -71.03305659689568 6.2165709795835475 M-70.60005221428463 7.286100176203095 C-70.73391990272324 6.9554443976040154, -70.86778759116186 6.624788619004935, -71.03305659689568 6.2165709795835475 M-71.03305659689568 6.2165709795835475 C-71.16241792815204 5.826955260768525, -71.29177925940839 5.437339541953501, -71.3966463546599 5.121496559358584 M-71.03305659689568 6.2165709795835475 C-71.1167358537916 5.9645423902920545, -71.20041511068752 5.712513801000561, -71.3966463546599 5.121496559358584 M-71.3966463546599 5.121496559358584 C-71.45665748623935 4.892648105657158, -71.51666861781881 4.663799651955732, -71.68932741927281 4.005376811213663 M-71.3966463546599 5.121496559358584 C-71.49759243988609 4.7365453860810005, -71.59853852511229 4.351594212803416, -71.68932741927281 4.005376811213663 M-71.68932741927281 4.005376811213663 C-71.76521313265313 3.6157197114569923, -71.84109884603343 3.2260626117003213, -71.9098971014601 2.8727981106008347 M-71.68932741927281 4.005376811213663 C-71.75154137702361 3.685921287087962, -71.81375533477441 3.3664657629622607, -71.9098971014601 2.8727981106008347 M-71.9098971014601 2.8727981106008347 C-71.96777210718005 2.423930994949486, -72.02564711289999 1.9750638792981374, -72.05744903308556 1.7284144663382852 M-71.9098971014601 2.8727981106008347 C-71.956010983381 2.515147948638293, -72.0021248653019 2.157497786675751, -72.05744903308556 1.7284144663382852 M-72.05744903308556 1.7284144663382852 C-72.07892139694214 1.3939650670919324, -72.10039376079872 1.0595156678455795, -72.13137689161238 0.5769283962897952 M-72.05744903308556 1.7284144663382852 C-72.08160684862449 1.3521369894816835, -72.10576466416343 0.9758595126250817, -72.13137689161238 0.5769283962897952 M-72.13137689161238 0.5769283962897952 C-72.13137689161238 0.12441233821733133, -72.13137689161238 -0.32810371985513254, -72.13137689161238 -0.5769283962897864 M-72.13137689161238 0.5769283962897952 C-72.13137689161238 0.2318298519664554, -72.13137689161238 -0.11326869235688442, -72.13137689161238 -0.5769283962897864 M-72.13137689161238 -0.5769283962897864 C-72.11278797136517 -0.8664658338463436, -72.09419905111797 -1.1560032714029007, -72.05744903308556 -1.7284144663382603 M-72.13137689161238 -0.5769283962897864 C-72.11347905932448 -0.8557015810441029, -72.09558122703656 -1.1344747657984193, -72.05744903308556 -1.7284144663382603 M-72.05744903308556 -1.7284144663382603 C-71.99952794286007 -2.1776390043142797, -71.94160685263456 -2.626863542290299, -71.9098971014601 -2.8727981106008262 M-72.05744903308556 -1.7284144663382603 C-72.00891153702484 -2.1048617009724886, -71.96037404096413 -2.4813089356067164, -71.9098971014601 -2.8727981106008262 M-71.9098971014601 -2.8727981106008262 C-71.85968451713508 -3.1306291186763495, -71.80947193281007 -3.3884601267518724, -71.68932741927283 -4.005376811213655 M-71.9098971014601 -2.8727981106008262 C-71.8561168371593 -3.1489484013225755, -71.8023365728585 -3.4250986920443243, -71.68932741927283 -4.005376811213655 M-71.68932741927283 -4.005376811213655 C-71.62530906746669 -4.249506532379651, -71.56129071566055 -4.493636253545645, -71.3966463546599 -5.121496559358575 M-71.68932741927283 -4.005376811213655 C-71.59802317846918 -4.353559452906279, -71.50671893766551 -4.701742094598903, -71.3966463546599 -5.121496559358575 M-71.3966463546599 -5.121496559358575 C-71.30302221986858 -5.403477536369875, -71.20939808507728 -5.685458513381175, -71.03305659689569 -6.2165709795835244 M-71.3966463546599 -5.121496559358575 C-71.2996027072676 -5.4137765634987325, -71.20255905987528 -5.706056567638889, -71.03305659689569 -6.2165709795835244 M-71.03305659689569 -6.2165709795835244 C-70.92705196972787 -6.478404458148075, -70.82104734256006 -6.740237936712627, -70.60005221428463 -7.286100176203086 M-71.03305659689569 -6.2165709795835244 C-70.92642830588339 -6.479944919901674, -70.81980001487109 -6.743318860219823, -70.60005221428463 -7.286100176203086 M-70.60005221428463 -7.286100176203086 C-70.44015507085687 -7.618130015781605, -70.28025792742913 -7.950159855360124, -70.099412514714 -8.32568922433503 M-70.60005221428463 -7.286100176203086 C-70.4372777343827 -7.624104866535376, -70.27450325448076 -7.962109556867666, -70.099412514714 -8.32568922433503 M-70.099412514714 -8.32568922433503 C-69.90310998999585 -8.674244234758191, -69.70680746527772 -9.022799245181353, -69.53319473409623 -9.331066229589455 M-70.099412514714 -8.32568922433503 C-69.92758641955459 -8.630783855569414, -69.75576032439518 -8.9358784868038, -69.53319473409623 -9.331066229589455 M-69.53319473409623 -9.331066229589455 C-69.35372656466772 -9.606777531782926, -69.1742583952392 -9.8824888339764, -68.90372558274521 -10.298099882199054 M-69.53319473409623 -9.331066229589455 C-69.30224551506798 -9.685866248565578, -69.07129629603972 -10.0406662675417, -68.90372558274521 -10.298099882199054 M-68.90372558274521 -10.298099882199054 C-68.6862088393133 -10.589552502214836, -68.46869209588138 -10.881005122230619, -68.21359168442454 -11.2228164334572 M-68.90372558274521 -10.298099882199054 C-68.63748435975856 -10.65483886592678, -68.37124313677191 -11.011577849654508, -68.21359168442454 -11.2228164334572 M-68.21359168442454 -11.2228164334572 C-68.04319750599427 -11.422971131144811, -67.87280332756401 -11.623125828832421, -67.46562894735568 -12.101416024703695 M-68.21359168442454 -11.2228164334572 C-68.01018902504134 -11.461744771107902, -67.80678636565814 -11.700673108758602, -67.46562894735568 -12.101416024703695 M-67.46562894735568 -12.101416024703695 C-67.29927741684665 -12.273187637668924, -67.13292588633762 -12.44495925063415, -66.66291091086276 -12.930288301759086 M-67.46562894735568 -12.101416024703695 C-67.17723287454405 -12.399208647639627, -66.88883680173242 -12.69700127057556, -66.66291091086276 -12.930288301759086 M-66.66291091086276 -12.930288301759086 C-66.424475833284 -13.146828730569668, -66.18604075570524 -13.36336915938025, -65.8087361155402 -13.706027250644407 M-66.66291091086276 -12.930288301759086 C-66.36479459758687 -13.201029649750845, -66.06667828431095 -13.471770997742604, -65.8087361155402 -13.706027250644407 M-65.8087361155402 -13.706027250644407 C-65.44913260401987 -13.992801481630547, -65.08952909249953 -14.279575712616687, -64.9066145488419 -14.425445193623215 M-65.8087361155402 -13.706027250644407 C-65.46195405325258 -13.98257671706055, -65.11517199096495 -14.25912618347669, -64.9066145488419 -14.425445193623215 M-64.9066145488419 -14.425445193623215 C-64.67377138466853 -14.587866505332435, -64.44092822049515 -14.750287817041658, -63.960253221789884 -15.085585888053124 M-64.9066145488419 -14.425445193623215 C-64.54769990308378 -14.675808513339472, -64.18878525732568 -14.926171833055731, -63.960253221789884 -15.085585888053124 M-63.960253221789884 -15.085585888053124 C-63.6261439863596 -15.288124870014768, -63.292034750929325 -15.49066385197641, -62.97354093607088 -15.683736674221008 M-63.960253221789884 -15.085585888053124 C-63.72665191864276 -15.227196370814546, -63.49305061549563 -15.368806853575968, -62.97354093607088 -15.683736674221008 M-62.97354093607088 -15.683736674221008 C-62.754200032705725 -15.798166683012058, -62.53485912934057 -15.912596691803106, -61.95053230411605 -16.217439622243543 M-62.97354093607088 -15.683736674221008 C-62.63414138664857 -15.860801201758841, -62.29474183722626 -16.037865729296673, -61.95053230411605 -16.217439622243543 M-61.95053230411605 -16.217439622243543 C-61.65177157958324 -16.34969213257221, -61.35301085505042 -16.48194464290087, -60.89543108782874 -16.684501632228386 M-61.95053230411605 -16.217439622243543 C-61.66403871773329 -16.344261834404904, -61.37754513135053 -16.471084046566265, -60.89543108782874 -16.684501632228386 M-60.89543108782874 -16.684501632228386 C-60.64196119334576 -16.777780896448142, -60.388491298862775 -16.871060160667902, -59.81257292442518 -17.08300344619203 M-60.89543108782874 -16.684501632228386 C-60.508288523061054 -16.826973674769533, -60.12114595829337 -16.96944571731068, -59.81257292442518 -17.08300344619203 M-59.81257292442518 -17.08300344619203 C-59.51676755724128 -17.170796926458156, -59.22096219005738 -17.25859040672428, -58.70640751037115 -17.411307534702523 M-59.81257292442518 -17.08300344619203 C-59.58751614724933 -17.149799116310692, -59.36245937007348 -17.216594786429354, -58.70640751037115 -17.411307534702523 M-58.70640751037115 -17.411307534702523 C-58.25782514269339 -17.513693532851455, -57.809242775015626 -17.616079531000388, -57.581480316624706 -17.668064825839174 M-58.70640751037115 -17.411307534702523 C-58.406824715769275 -17.479685352609966, -58.10724192116741 -17.54806317051741, -57.581480316624706 -17.668064825839174 M-57.581480316624706 -17.668064825839174 C-57.14329082983889 -17.738907903852486, -56.70510134305307 -17.809750981865793, -56.44241391032112 -17.85222024881843 M-57.581480316624706 -17.668064825839174 C-57.213309110010435 -17.72758789131422, -56.84513790339617 -17.787110956789267, -56.44241391032112 -17.85222024881843 M-56.44241391032112 -17.85222024881843 C-56.155465618664984 -17.879901805408686, -55.868517327008846 -17.90758336199894, -55.29388895965283 -17.963017069506055 M-56.44241391032112 -17.85222024881843 C-56.104442181595466 -17.884823975018122, -55.76647045286981 -17.917427701217814, -55.29388895965283 -17.963017069506055 M-55.29388895965283 -17.963017069506055 C-54.99470402637372 -17.97261134798817, -54.69551909309461 -17.982205626470286, -54.14062500000001 -18 M-55.29388895965283 -17.963017069506055 C-55.05484147461671 -17.97068285707346, -54.81579398958059 -17.978348644640867, -54.14062500000001 -18 M-54.14062500000001 -18 C-54.14062500000001 -18, -54.140625 -18, -54.140625 -18 M-54.14062500000001 -18 C-54.14062500000001 -18, -54.140625 -18, -54.140625 -18" stroke="#0b3d20" stroke-width="1.3" fill="none" stroke-dasharray="0 0" style="fill:#1a7f37 !important;stroke:#0b3d20 !important"/></g><g class="label" style="color:#ffffff !important;font-weight:bold !important" transform="translate(-61.640625, -12)"><rect/><foreignObject width="123.28125" height="24"><div style="color: rgb(255, 255, 255) !important; font-weight: bold !important; display: table-cell; white-space: nowrap; line-height: 1.5; max-width: 200px; text-align: center;" xmlns="http://www.w3.org/1999/xhtml"><span style="color:#ffffff !important;font-weight:bold !important" class="nodeLabel"><p>HTTPS to clients</p></span></div></foreignObject></g></g></g></g></g><defs><filter id="my-svg-drop-shadow" height="130%" width="130%"><feDropShadow dx="4" dy="4" stdDeviation="0" flood-opacity="0.06" flood-color="#000000"/></filter></defs><defs><filter id="my-svg-drop-shadow-small" height="150%" width="150%"><feDropShadow dx="2" dy="2" stdDeviation="0" flood-opacity="0.06" flood-color="#000000"/></filter></defs><linearGradient id="my-svg-gradient" gradientUnits="objectBoundingBox" x1="0%" y1="0%" x2="100%" y2="0%"><stop offset="0%" stop-color="hsl(40.5882352941, 60%, 83.3333333333%)" stop-opacity="1"/><stop offset="100%" stop-color="hsl(-79.4117647059, 60%, 83.3333333333%)" stop-opacity="1"/></linearGradient></svg>